<svg width="720" height="427" viewBox="0 0 720 427" fill="none" xmlns="http://www.w3.org/2000/svg">
<rect y="41" width="720" height="386" fill="#FAE190"/>
<rect x="382" y="25" width="117" height="16" fill="#FAE190"/>
<rect x="394" y="14" width="77" height="16" fill="#FAE190"/>
<rect x="403" y="4" width="48" height="16" fill="#FAE190"/>
<line y1="39" x2="383" y2="39" stroke="#191919" stroke-width="4"/>
<line x1="499" y1="39" x2="720" y2="39" stroke="#191919" stroke-width="4"/>
<line x1="379" y1="24" x2="390" y2="24" stroke="#191919" stroke-width="4"/>
<line x1="381" y1="37" x2="381" y2="26" stroke="#191919" stroke-width="4"/>
<line x1="399" y1="2" x2="451" y2="2" stroke="#191919" stroke-width="4"/>
<line x1="401" y1="15" x2="401" y2="4" stroke="#191919" stroke-width="4"/>
<line x1="449" y1="15" x2="449" y2="4" stroke="#191919" stroke-width="4"/>
<line x1="473" y1="25" x2="473" y2="14" stroke="#191919" stroke-width="4"/>
<line x1="390" y1="13" x2="401" y2="13" stroke="#191919" stroke-width="4"/>
<line x1="447" y1="14" x2="475" y2="14" stroke="#191919" stroke-width="4"/>
<line x1="183" y1="70" x2="200" y2="70" stroke="#191919" stroke-width="4"/>
<line x1="77" y1="54" x2="94" y2="54" stroke="#191919" stroke-width="4"/>
<line x1="587" y1="87" x2="604" y2="87" stroke="#191919" stroke-width="4"/>
<line x1="664" y1="54" x2="681" y2="54" stroke="#191919" stroke-width="4"/>
<line x1="458" y1="70" x2="475" y2="70" stroke="#191919" stroke-width="4"/>
<line x1="27" y1="87" x2="37" y2="87" stroke="#191919" stroke-width="4"/>
<line x1="671" y1="97" x2="681" y2="97" stroke="#191919" stroke-width="4"/>
<line x1="545" y1="64" x2="555" y2="64" stroke="#191919" stroke-width="4"/>
<line x1="403" y1="106" x2="413" y2="106" stroke="#191919" stroke-width="4"/>
<line x1="273" y1="54" x2="283" y2="54" stroke="#191919" stroke-width="4"/>
<line x1="136" y1="64" x2="146" y2="64" stroke="#191919" stroke-width="4"/>
<line x1="261" y1="87" x2="278" y2="87" stroke="#191919" stroke-width="4"/>
<line x1="473" y1="27" x2="473" y2="16" stroke="#191919" stroke-width="4"/>
<line x1="497" y1="41" x2="497" y2="26" stroke="#191919" stroke-width="4"/>
<line x1="471" y1="26" x2="499" y2="26" stroke="#191919" stroke-width="4"/>
<line x1="392" y1="26" x2="392" y2="15" stroke="#191919" stroke-width="4"/>
</svg>
