<svg width="266" height="267" viewBox="0 0 266 267" fill="none" xmlns="http://www.w3.org/2000/svg">
<g filter="url(#filter0_d_87_535)">
<path fill-rule="evenodd" clip-rule="evenodd" d="M236.963 129.502L237 130.546L237.109 131.592L237.29 132.643L237.544 133.702L237.868 134.77L238.263 135.849L238.727 136.943L239.26 138.053L239.858 139.182L240.52 140.331L241.245 141.503L242.028 142.699L242.867 143.92L243.759 145.17L244.699 146.448L245.682 147.756L246.704 149.095L247.757 150.464L248.837 151.865L249.934 153.296L251.043 154.758L252.153 156.249L253.255 157.767L254.34 159.31L255.398 160.875L256.416 162.459L257.385 164.058L258.291 165.668L259.125 167.283L259.873 168.899L260.526 170.508L261.071 172.106L261.5 173.685L261.802 175.239L261.971 176.761L262 178.244L261.883 179.683L261.618 181.071L261.203 182.403L260.639 183.674L259.926 184.88L259.071 186.018L258.077 187.085L256.953 188.08L255.706 189.003L254.347 189.854L252.886 190.634L251.335 191.345L249.706 191.99L248.009 192.573L246.259 193.097L244.466 193.567L242.642 193.989L240.798 194.367L238.944 194.706L237.092 195.012L235.248 195.291L233.422 195.547L231.621 195.787L229.852 196.016L228.12 196.238L226.43 196.458L224.787 196.681L223.194 196.912L221.654 197.155L220.169 197.413L218.741 197.691L217.372 197.991L216.062 198.318L214.811 198.674L213.621 199.063L212.49 199.487L211.418 199.948L210.405 200.45L209.45 200.995L208.551 201.584L207.708 202.221L206.918 202.906L206.181 203.642L205.495 204.43L204.857 205.273L204.266 206.17L203.72 207.125L203.217 208.137L202.754 209.208L202.329 210.338L201.939 211.529L201.581 212.779L201.254 214.09L200.952 215.459L200.674 216.888L200.415 218.374L200.173 219.916L199.942 221.511L199.719 223.157L199.499 224.85L199.279 226.585L199.052 228.358L198.814 230.164L198.56 231.995L198.284 233.845L197.981 235.704L197.646 237.565L197.273 239.417L196.857 241.25L196.393 243.053L195.875 244.814L195.299 246.522L194.661 248.164L193.958 249.727L193.187 251.202L192.345 252.574L191.432 253.835L190.446 254.974L189.388 255.982L188.26 256.852L187.064 257.579L185.803 258.158L184.481 258.586L183.103 258.864L181.673 258.993L180.199 258.976L178.686 258.817L177.14 258.524L175.569 258.103L173.979 257.565L172.376 256.918L170.767 256.174L169.158 255.344L167.554 254.439L165.96 253.471L164.38 252.452L162.819 251.394L161.28 250.306L159.766 249.2L158.279 248.086L156.821 246.973L155.392 245.87L153.994 244.785L152.628 243.725L151.292 242.696L149.986 241.706L148.711 240.759L147.464 239.86L146.245 239.013L145.051 238.222L143.882 237.49L142.736 236.82L141.61 236.214L140.503 235.675L139.412 235.203L138.335 234.801L137.271 234.47L136.216 234.21L135.168 234.022L134.125 233.906L133.085 233.864L132.045 233.895L131.003 233.998L129.957 234.175L128.903 234.423L127.84 234.744L126.765 235.134L125.677 235.595L124.572 236.124L123.45 236.719L122.307 237.379L121.141 238.101L119.952 238.883L118.737 239.721L117.495 240.612L116.224 241.552L114.923 242.536L113.592 243.559L112.23 244.614L110.838 245.696L109.414 246.797L107.96 247.909L106.478 249.023L104.968 250.131L103.432 251.222L101.875 252.286L100.298 253.312L98.7061 254.289L97.1031 255.204L95.4943 256.047L93.8848 256.806L92.2807 257.469L90.6881 258.025L89.1135 258.465L87.5634 258.779L86.0446 258.96L84.5636 259L83.1267 258.895L81.7398 258.641L80.4084 258.236L79.1373 257.681L77.9306 256.978L76.7916 256.13L75.7227 255.143L74.7255 254.025L73.8004 252.783L72.9473 251.427L72.1649 249.969L71.4511 248.418L70.8033 246.788L70.218 245.09L69.6913 243.337L69.2185 241.54L68.7949 239.71L68.4154 237.861L68.0746 236.001L67.7672 234.14L67.4875 232.289L67.2303 230.454L66.9902 228.644L66.762 226.865L66.5406 225.123L66.3211 223.423L66.099 221.77L65.8698 220.167L65.6293 218.616L65.3735 217.121L65.0986 215.683L64.8012 214.304L64.4778 212.984L64.1253 211.724L63.7409 210.524L63.3215 209.384L62.8647 208.304L62.368 207.282L61.829 206.319L61.2454 205.412L60.6153 204.561L59.9366 203.764L59.2076 203.02L58.4264 202.326L57.5917 201.682L56.7018 201.086L55.7555 200.534L54.7518 200.025L53.6896 199.558L52.5683 199.128L51.3874 198.734L50.1465 198.373L48.846 198.041L47.486 197.737L46.0675 197.456L44.5916 197.195L43.0601 196.95L41.4752 196.717L39.8397 196.493L38.1571 196.273L36.4315 196.051L34.6677 195.824L32.8714 195.587L31.0491 195.333L29.2079 195.058L27.356 194.757L25.5022 194.423L23.6561 194.052L21.8282 193.638L20.0294 193.175L18.2712 192.66L16.5655 192.087L14.9243 191.452L13.3599 190.751L11.8839 189.983L10.508 189.143L9.24287 188.232L8.09844 187.248L7.08346 186.192L6.20534 185.066L5.46999 183.87L4.88161 182.609L4.44267 181.287L4.1538 179.907L4.01378 178.476L4.01962 177L4.16662 175.483L4.44853 173.934L4.85767 172.359L5.38519 170.764L6.02122 169.156L6.75513 167.541L7.57574 165.925L8.47154 164.314L9.43089 162.713L10.4422 161.126L11.4941 159.557L12.5756 158.011L13.6761 156.489L14.7855 154.994L15.8946 153.527L16.9946 152.091L18.0774 150.685L19.1356 149.311L20.1626 147.967L21.1524 146.654L22.0995 145.371L22.9991 144.118L23.8471 142.891L24.6396 141.691L25.3735 140.516L26.046 139.363L26.6546 138.232L27.1974 137.119L27.6725 136.022L28.0786 134.941L28.4145 133.871L28.6792 132.811L28.8721 131.759L28.9927 130.712L29.0407 129.668L29.0159 128.624L28.9184 127.578L28.7485 126.528L28.5065 125.471L28.1932 124.404L27.8094 123.327L27.3561 122.235L26.8347 121.128L26.2469 120.002L25.5945 118.857L24.8799 117.689L24.1057 116.497L23.275 115.279L22.3914 114.034L21.4589 112.761L20.4822 111.458L19.4664 110.124L18.4174 108.759L17.3417 107.364L16.2464 105.937L15.1393 104.48L14.0289 102.994L12.9245 101.48L11.8359 99.9409L10.7734 98.379L9.74794 96.7976L8.77078 95.2005L7.85347 93.5921L7.00765 91.9773L6.24489 90.3615L5.5765 88.7505L5.01331 87.1506L4.56545 85.5682L4.24212 84.01L4.05139 82.4826L4 80.9926L4.09315 79.5464L4.33439 78.1499L4.72551 76.8088L5.26646 75.5278L5.95538 74.3111L6.78858 73.1622L7.7607 72.0835L8.86479 71.0767L10.0925 70.1423L11.4343 69.2802L12.8796 68.4891L14.4171 67.7672L16.0351 67.1118L17.7216 66.5194L19.4644 65.986L21.2515 65.5073L23.0714 65.0784L24.9128 64.694L26.7653 64.3491L28.6188 64.0379L30.4643 63.7552L32.2935 63.4954L34.0988 63.2532L35.8735 63.0233L37.6119 62.8007L39.3087 62.5804L40.9596 62.3578L42.5609 62.1284L44.1097 61.888L45.6035 61.6326L47.0405 61.3583L48.4192 61.0617L49.7387 60.7393L50.9986 60.3879L52.1986 60.0046L53.3389 59.5865L54.4198 59.1311L55.4421 58.6357L56.4065 58.098L57.3142 57.5159L58.1664 56.8871L58.9645 56.2098L59.7099 55.482L60.4045 54.7021L61.0499 53.8684L61.648 52.9795L62.201 52.0342L62.711 51.0312L63.1802 49.9696L63.6112 48.8488L64.0065 47.668L64.3688 46.4272L64.7011 45.1264L65.0065 43.7659L65.2881 42.3465L65.5496 40.8695L65.7946 39.3364L66.027 37.7496L66.2509 36.1117L66.4707 34.4262L66.691 32.6972L66.9165 30.9295L67.1523 29.1287L67.4034 27.3011L67.6753 25.4541L67.9733 23.5955L68.3029 21.7344L68.6695 19.8802L69.0785 18.0434L69.535 16.2349L70.0441 14.4662L70.6103 12.7493L71.2378 11.0962L71.9302 9.51909L72.6905 8.02995L73.5209 6.64032L74.423 5.36108L75.3972 4.20224L76.4434 3.1727L77.5603 2.28002L78.7458 1.53023L79.9968 0.927722L81.3095 0.475097L82.6792 0.173131L84.1008 0.0207593L85.5685 0.0151135L87.076 0.151612L88.6168 0.424086L90.1843 0.82495L91.7719 1.34539L93.373 1.97558L94.9814 2.7049L96.5911 3.52217L98.1964 4.41585L99.7924 5.37425L101.374 6.38574L102.939 7.43887L104.481 8.52254L105.999 9.62612L107.491 10.7395L108.954 11.8532L110.387 12.9585L111.79 14.0471L113.162 15.1117L114.503 16.1454L115.813 17.1421L117.093 18.0965L118.344 19.0035L119.568 19.859L120.765 20.6592L121.938 21.4007L123.088 22.0808L124.217 22.697L125.327 23.2471L126.42 23.7296L127.499 24.1428L128.565 24.4856L129.622 24.7571L130.67 24.9565L131.714 25.0834L132.754 25.1373L133.794 25.1183L134.836 25.0262L135.881 24.8614L136.934 24.6243L137.995 24.3154L139.068 23.9357L140.154 23.4862L141.255 22.9682L142.375 22.3833L143.515 21.7335L144.676 21.021L145.862 20.2485L147.073 19.419L148.311 18.536L149.577 17.6037L150.873 16.6266L152.199 15.6098L153.556 14.5592L154.944 13.4812L156.362 12.3829L157.811 11.2722L159.29 10.1575L160.795 9.04798L162.327 7.9535L163.881 6.88442L165.455 5.85162L167.045 4.86641L168.646 3.94035L170.254 3.08512L171.864 2.31236L173.469 1.63344L175.064 1.05928L176.642 0.600115L178.197 0.26527L179.721 0.0629425L181.208 0L182.653 0.081801L184.048 0.312046L185.388 0.69267L186.669 1.22378L187.887 1.90364L189.037 2.7287L190.117 3.6937L191.126 4.79179L192.062 6.01469L192.927 7.35289L193.72 8.79589L194.445 10.3324L195.103 11.9507L195.698 13.6387L196.234 15.3841L196.715 17.1751L197.146 18.9998L197.532 20.847L197.878 22.706L198.191 24.567L198.475 26.4206L198.735 28.2584L198.977 30.0728L199.207 31.8571L199.429 33.6053L199.649 35.3121L199.87 36.9732L200.098 38.5848L200.337 40.1439L200.59 41.6479L200.861 43.095L201.155 44.4837L201.474 45.8131L201.821 47.0827L202.201 48.2921L202.614 49.4415L203.065 50.5314L203.555 51.5622L204.087 52.535L204.664 53.4507L205.286 54.3105L205.957 55.116L206.678 55.8684L207.451 56.5697L208.277 57.2214L209.158 57.8256L210.095 58.3842L211.089 58.8995L212.142 59.3737L213.254 59.8093L214.426 60.2089L215.657 60.5752L216.948 60.911L218.298 61.2196L219.708 61.5041L221.175 61.7681L222.697 62.0152L224.274 62.2493L225.902 62.4746L227.577 62.6954L229.296 62.9164L231.054 63.1422L232.846 63.3778L234.664 63.6286L236.503 63.8996L238.354 64.1965L240.208 64.5246L242.056 64.8895L243.887 65.2965L245.692 65.7508L247.457 66.2574L249.172 66.8211L250.824 67.446L252.402 68.1357L253.892 68.8934L255.285 69.7214L256.569 70.6212L257.733 71.5935L258.769 72.638L259.669 73.7536L260.428 74.9382L261.04 76.1889L261.503 77.5019L261.815 78.8726L261.979 80.2958L261.996 81.7656L261.871 83.2759L261.61 84.8203L261.221 86.392L260.711 87.9843L260.092 89.5908L259.373 91.205L258.565 92.821L257.681 94.4331L256.731 96.0362L255.727 97.6256L254.681 99.1973L253.603 100.748L252.505 102.274L251.396 103.773L250.287 105.244L249.185 106.686L248.099 108.096L247.036 109.476L246.004 110.824L245.008 112.142L244.053 113.429L243.146 114.688L242.289 115.918L241.488 117.122L240.744 118.302L240.062 119.458L239.443 120.593L238.89 121.708L238.404 122.807L237.986 123.891L237.639 124.963L237.363 126.024L237.159 127.077L237.027 128.125L236.967 129.169L236.963 129.502Z" fill="#EC7E78"/>
<path d="M77.7608 94.9556L80.4281 88.7877L102.766 80.6672C104.511 80.0735 105.871 79.4532 106.848 78.8066C107.825 78.1599 108.572 77.5068 109.09 76.8474C109.647 76.205 110.061 75.5705 110.332 74.9439C111.043 73.2991 111.017 71.8003 110.254 70.4477C109.547 69.0727 108.116 67.9196 105.963 66.9881C104.239 66.243 102.49 65.8815 100.714 65.9037C98.9769 65.9428 97.2945 66.4471 95.6667 67.4166L90.6657 59.9546C93.2483 58.2823 96.2458 57.3706 99.6582 57.2192C103.071 57.0679 106.617 57.7883 110.299 59.3802C113.353 60.7012 115.796 62.3619 117.627 64.3623C119.514 66.3406 120.695 68.5014 121.169 70.8447C121.682 73.205 121.397 75.6384 120.313 78.1447C119.737 79.4762 118.985 80.7315 118.057 81.9106C117.185 83.0674 115.926 84.1502 114.282 85.1588C112.676 86.1844 110.524 87.183 107.826 88.1546L89.3077 94.859L88.9855 90.6057L112.189 100.64L108.836 108.394L77.7608 94.9556ZM130.08 118.418C126.712 116.961 124.052 114.835 122.101 112.039C120.166 109.203 119.121 105.869 118.965 102.036C118.81 98.2038 119.706 94.0357 121.653 89.5321C123.601 85.0285 126.024 81.5209 128.923 79.0093C131.822 76.4977 134.959 74.9953 138.333 74.5021C141.724 73.9698 145.104 74.4318 148.472 75.8883C151.879 77.3617 154.53 79.5077 156.426 82.3263C158.378 85.1227 159.431 88.4372 159.587 92.2698C159.742 96.1024 158.846 100.27 156.899 104.774C154.951 109.278 152.528 112.785 149.629 115.297C146.73 117.808 143.585 119.33 140.193 119.863C136.858 120.373 133.487 119.891 130.08 118.418ZM133.56 110.37C135.166 111.064 136.751 111.215 138.315 110.823C139.919 110.447 141.477 109.424 142.989 107.754C144.541 106.101 145.986 103.727 147.324 100.633C148.662 97.5395 149.401 94.8612 149.543 92.5983C149.724 90.3523 149.403 88.5164 148.578 87.0907C147.793 85.6819 146.597 84.6304 144.992 83.936C143.425 83.2586 141.84 83.1077 140.237 83.4835C138.672 83.8761 137.114 84.8991 135.563 86.5523C134.05 88.2225 132.625 90.6045 131.287 93.6982C129.949 96.792 129.19 99.4619 129.009 101.708C128.867 103.971 129.189 105.807 129.974 107.215C130.798 108.641 131.994 109.693 133.56 110.37ZM158.564 129.899L204.425 100.922L211.416 103.945L165.555 132.922L158.564 129.899ZM170.327 112.534C168.33 111.67 166.763 110.457 165.625 108.896C164.504 107.296 163.857 105.459 163.685 103.386C163.568 101.29 164.01 99.0867 165.009 96.7762C166.008 94.4657 167.303 92.6547 168.892 91.3433C170.521 90.0489 172.303 89.262 174.237 88.9826C176.17 88.7032 178.136 88.9953 180.133 89.8591C182.13 90.7228 183.689 91.9548 184.81 93.5552C185.931 95.1555 186.558 96.984 186.691 99.0405C186.825 101.097 186.392 103.281 185.393 105.591C184.393 107.902 183.091 109.732 181.484 111.083C179.894 112.394 178.132 113.189 176.199 113.469C174.282 113.709 172.325 113.397 170.327 112.534ZM172.41 107.717C173.703 108.276 174.969 108.196 176.21 107.477C177.467 106.719 178.57 105.244 179.518 103.051C180.467 100.858 180.778 99.0632 180.452 97.6671C180.143 96.2319 179.342 95.2348 178.05 94.6759C176.797 94.134 175.522 94.2335 174.225 94.9744C172.985 95.693 171.89 97.1489 170.942 99.3419C170.011 101.496 169.699 103.29 170.008 104.726C170.357 106.178 171.157 107.175 172.41 107.717ZM189.847 143.985C187.889 143.138 186.321 141.926 185.144 140.348C184.024 138.747 183.397 136.919 183.263 134.862C183.147 132.767 183.588 130.564 184.587 128.253C185.587 125.943 186.881 124.132 188.471 122.82C190.061 121.509 191.822 120.714 193.756 120.434C195.729 120.172 197.695 120.464 199.653 121.311C201.689 122.191 203.268 123.432 204.389 125.032C205.509 126.632 206.136 128.461 206.27 130.517C206.403 132.574 205.97 134.758 204.971 137.068C203.972 139.379 202.669 141.209 201.062 142.56C199.472 143.871 197.711 144.666 195.777 144.946C193.86 145.186 191.883 144.866 189.847 143.985ZM191.93 139.168C193.222 139.727 194.489 139.647 195.729 138.929C196.987 138.171 198.09 136.695 199.038 134.502C199.969 132.348 200.281 130.554 199.972 129.119C199.663 127.683 198.862 126.686 197.57 126.127C196.316 125.586 195.042 125.685 193.745 126.426C192.504 127.145 191.41 128.6 190.462 130.793C189.513 132.987 189.194 134.801 189.503 136.236C189.868 137.649 190.677 138.626 191.93 139.168ZM69.4054 177.16C66.155 175.755 63.3682 173.922 61.0449 171.662C58.7609 169.419 57.0156 166.898 55.809 164.098C54.6416 161.316 54.0489 158.387 54.031 155.311C54.0522 152.252 54.7233 149.195 56.0442 146.141C57.3652 143.086 59.1328 140.503 61.3471 138.393C63.6005 136.299 66.1603 134.734 69.0266 133.695C71.8928 132.657 74.9252 132.202 78.1238 132.33C81.3224 132.458 84.5273 133.217 87.7386 134.605C90.989 136.011 93.7366 137.827 95.9815 140.053C98.2656 142.295 99.9913 144.808 101.159 147.591C102.365 150.39 102.978 153.328 102.995 156.404C103.03 159.44 102.379 162.506 101.041 165.599C99.72 168.654 97.9243 171.248 95.654 173.38C93.4005 175.474 90.8407 177.04 87.9745 178.078C85.1643 179.094 82.16 179.538 78.9614 179.41C75.802 179.299 72.6166 178.549 69.4054 177.16ZM72.8523 169.028C74.6929 169.824 76.5123 170.239 78.3106 170.273C80.148 170.324 81.9082 170.016 83.5911 169.349C85.274 168.682 86.7759 167.682 88.0969 166.347C89.457 165.029 90.5604 163.391 91.4072 161.433C92.254 159.475 92.6917 157.549 92.7203 155.656C92.788 153.779 92.4885 152 91.8217 150.317C91.1941 148.651 90.2326 147.166 88.9371 145.862C87.6416 144.558 86.0735 143.508 84.2329 142.712C82.3923 141.916 80.5533 141.492 78.7159 141.442C76.9176 141.408 75.177 141.724 73.4941 142.391C71.8112 143.058 70.2897 144.05 68.9296 145.368C67.6086 146.702 66.5248 148.349 65.678 150.307C64.8482 152.226 64.3909 154.143 64.3062 156.059C64.2776 157.952 64.5771 159.732 65.2047 161.398C65.8715 163.081 66.8526 164.574 68.1481 165.878C69.4436 167.182 71.0117 168.232 72.8523 169.028ZM117.893 170.447L137.631 178.982L134.328 186.619L114.591 178.083L117.893 170.447ZM108.818 193.367L99.3017 189.252L117.084 148.132L148.159 161.571L144.856 169.207L123.298 159.884L108.818 193.367ZM155.411 186.671L175.148 195.207L171.846 202.843L152.108 194.308L155.411 186.671ZM146.335 209.592L136.819 205.476L154.601 164.357L185.676 177.795L182.374 185.432L160.815 176.109L146.335 209.592Z" fill="white"/>
<path d="M90.9101 39.8392C89.4513 39.2083 88.4864 38.3088 88.0155 37.1405C87.5445 35.9723 87.635 34.6343 88.287 33.1266L90.7765 27.3698L93.1556 28.3986L90.7042 34.0673C90.2808 35.0463 90.1767 35.838 90.3918 36.4424C90.6069 37.0468 91.0767 37.5056 91.8012 37.8189C92.5257 38.1322 93.1818 38.1603 93.7695 37.9031C94.3572 37.6459 94.8627 37.0278 95.2861 36.0487L97.7375 30.3801L100.087 31.3962L97.5977 37.153C96.9457 38.6607 96.0328 39.643 94.859 40.1C93.6852 40.5569 92.3689 40.47 90.9101 39.8392ZM97.9926 42.6928L102.438 32.4129L106.888 34.3372C107.808 34.7351 108.536 35.2298 109.07 35.8212C109.609 36.4029 109.939 37.051 110.06 37.7657C110.18 38.4804 110.074 39.2245 109.739 39.998C109.409 40.7616 108.942 41.3441 108.339 41.7455C107.735 42.1469 107.035 42.3554 106.238 42.371C105.445 42.3768 104.588 42.1808 103.668 41.7828L100.54 40.4301L102.061 39.8153L100.372 43.7216L97.9926 42.6928ZM101.947 40.0796L101.378 38.4916L104.374 39.7871C105.108 40.1047 105.724 40.1851 106.222 40.0285C106.72 39.8718 107.089 39.5145 107.331 38.9564C107.576 38.3886 107.586 37.8697 107.359 37.3997C107.132 36.9298 106.652 36.5361 105.917 36.2185L102.922 34.9229L104.468 34.2494L101.947 40.0796ZM115.037 50.0637L118.644 41.7223L115.355 40.2997L116.193 38.3612L125.151 42.2352L124.313 44.1737L121.023 42.7511L117.416 51.0925L115.037 50.0637ZM126.759 55.3422C125.947 54.9907 125.25 54.5326 124.669 53.9676C124.098 53.4069 123.662 52.7766 123.36 52.0767C123.068 51.3811 122.92 50.6488 122.916 49.8798C122.921 49.1151 123.089 48.3509 123.419 47.5873C123.749 46.8236 124.191 46.178 124.745 45.6503C125.308 45.127 125.948 44.7355 126.665 44.4759C127.381 44.2163 128.139 44.1026 128.939 44.1346C129.739 44.1666 130.54 44.3562 131.343 44.7034C132.155 45.0548 132.842 45.5088 133.403 46.0652C133.974 46.626 134.406 47.2541 134.698 47.9498C134.999 48.6497 135.152 49.3841 135.157 50.1531C135.166 50.9122 135.003 51.6785 134.668 52.452C134.338 53.2156 133.889 53.864 133.321 54.3972C132.758 54.9206 132.118 55.3121 131.402 55.5716C130.699 55.8256 129.948 55.9366 129.148 55.9046C128.358 55.8768 127.562 55.6893 126.759 55.3422ZM127.621 53.3092C128.081 53.5082 128.536 53.6119 128.986 53.6204C129.445 53.6331 129.885 53.5561 130.306 53.3894C130.726 53.2227 131.102 52.9725 131.432 52.6389C131.772 52.3094 132.048 51.9 132.26 51.4104C132.471 50.9209 132.581 50.4395 132.588 49.9661C132.605 49.4969 132.53 49.052 132.363 48.6313C132.206 48.2148 131.966 47.8435 131.642 47.5175C131.318 47.1915 130.926 46.929 130.466 46.73C130.006 46.531 129.546 46.4252 129.087 46.4125C128.637 46.404 128.202 46.4831 127.781 46.6498C127.361 46.8165 126.98 47.0646 126.64 47.394C126.31 47.7277 126.039 48.1393 125.827 48.6288C125.62 49.1085 125.506 49.5878 125.484 50.0668C125.477 50.5402 125.552 50.9851 125.709 51.4016C125.876 51.8223 126.121 52.1957 126.445 52.5217C126.769 52.8477 127.161 53.1102 127.621 53.3092Z" fill="white"/>
<path d="M91.8274 209.168C91.49 209.032 91.1777 208.844 90.8906 208.607C90.6034 208.369 90.3928 208.116 90.2586 207.846L91.4867 206.787C91.5793 206.974 91.7034 207.141 91.8589 207.288C92.0225 207.438 92.1967 207.551 92.3815 207.625C92.6466 207.733 92.8815 207.753 93.0861 207.686C93.2956 207.63 93.5231 207.484 93.7686 207.247L94.4278 206.588L94.6553 206.442L99.2433 201.791L101.051 202.522L95.3388 208.219C94.9186 208.656 94.5118 208.969 94.1184 209.155C93.733 209.345 93.3513 209.434 92.9731 209.421C92.603 209.412 92.2211 209.327 91.8274 209.168ZM93.8186 207.435L93.6515 199.529L95.5918 200.314L95.6394 206.643L93.8186 207.435ZM102.065 210.589C101.374 210.31 100.818 209.916 100.396 209.409C99.9832 208.906 99.7207 208.341 99.6089 207.716C99.5083 207.087 99.5881 206.45 99.8481 205.808C100.111 205.157 100.496 204.644 101.003 204.27C101.521 203.89 102.102 203.667 102.746 203.601C103.402 203.529 104.075 203.633 104.766 203.913C105.449 204.189 106.001 204.581 106.422 205.088C106.847 205.586 107.111 206.147 107.214 206.768C107.318 207.39 107.237 208.03 106.97 208.689C106.71 209.332 106.325 209.844 105.815 210.227C105.308 210.602 104.727 210.825 104.072 210.896C103.417 210.968 102.748 210.865 102.065 210.589ZM102.689 209.046C103.002 209.173 103.313 209.215 103.62 209.171C103.928 209.127 104.207 209.002 104.459 208.795C104.714 208.58 104.917 208.288 105.066 207.919C105.219 207.541 105.277 207.191 105.239 206.867C105.202 206.543 105.088 206.259 104.898 206.013C104.707 205.768 104.455 205.582 104.142 205.455C103.828 205.328 103.518 205.287 103.21 205.331C102.903 205.375 102.619 205.498 102.359 205.702C102.107 205.908 101.905 206.2 101.752 206.578C101.603 206.948 101.545 207.298 101.579 207.63C101.624 207.957 101.742 208.243 101.933 208.488C102.124 208.734 102.376 208.92 102.689 209.046ZM109.612 213.642C109.074 213.424 108.634 213.125 108.293 212.744C107.96 212.366 107.763 211.917 107.702 211.397C107.644 210.869 107.75 210.271 108.02 209.605L109.502 205.941L111.382 206.702L110.012 210.088C109.795 210.626 109.746 211.069 109.867 211.417C109.999 211.761 110.274 212.017 110.692 212.186C110.981 212.303 111.263 212.347 111.537 212.317C111.813 212.28 112.068 212.158 112.301 211.953C112.537 211.74 112.734 211.437 112.893 211.043L114.19 207.837L116.07 208.598L113.447 215.082L111.664 214.36L112.385 212.576L112.501 213.226C112.102 213.588 111.643 213.8 111.123 213.861C110.614 213.917 110.11 213.844 109.612 213.642ZM115.189 215.786L117.812 209.303L119.608 210.029L118.866 211.861L118.828 211.228C119.206 210.848 119.655 210.628 120.175 210.567C120.698 210.498 121.265 210.587 121.876 210.835L121.174 212.57C121.097 212.529 121.026 212.496 120.962 212.47C120.901 212.436 120.834 212.404 120.762 212.375C120.248 212.167 119.77 212.147 119.328 212.314C118.898 212.476 118.558 212.867 118.307 213.486L117.069 216.547L115.189 215.786ZM127.585 220.913C127.039 220.692 126.61 220.378 126.297 219.971C125.985 219.565 125.812 219.069 125.777 218.485C125.754 217.896 125.895 217.223 126.2 216.468C126.509 215.705 126.871 215.122 127.286 214.72C127.701 214.318 128.162 214.079 128.67 214.004C129.177 213.928 129.716 214.006 130.286 214.237C130.897 214.484 131.386 214.845 131.754 215.322C132.134 215.793 132.364 216.335 132.443 216.947C132.531 217.562 132.438 218.207 132.165 218.882C131.889 219.564 131.506 220.096 131.015 220.478C130.532 220.862 129.991 221.092 129.39 221.166C128.797 221.245 128.196 221.16 127.585 220.913ZM122.846 221.604L126.415 212.783L128.21 213.509L127.674 214.835L126.858 216.748L126.203 218.713L124.726 222.365L122.846 221.604ZM127.884 219.239C128.197 219.366 128.504 219.406 128.803 219.358C129.111 219.315 129.39 219.189 129.642 218.983C129.905 218.771 130.112 218.481 130.261 218.111C130.414 217.734 130.468 217.381 130.422 217.055C130.385 216.731 130.271 216.446 130.081 216.201C129.898 215.959 129.65 215.774 129.337 215.648C129.023 215.521 128.713 215.48 128.405 215.523C128.098 215.567 127.818 215.692 127.566 215.899C127.314 216.106 127.112 216.398 126.959 216.775C126.81 217.145 126.752 217.496 126.786 217.827C126.824 218.151 126.938 218.435 127.128 218.681C127.319 218.926 127.571 219.112 127.884 219.239ZM134.809 223.836C134.271 223.618 133.831 223.318 133.49 222.937C133.156 222.559 132.959 222.11 132.899 221.59C132.841 221.062 132.947 220.465 133.217 219.798L134.699 216.134L136.579 216.895L135.209 220.281C134.992 220.819 134.943 221.263 135.064 221.611C135.196 221.954 135.471 222.21 135.889 222.379C136.178 222.496 136.46 222.54 136.733 222.51C137.01 222.473 137.265 222.352 137.498 222.147C137.734 221.933 137.931 221.63 138.09 221.236L139.387 218.031L141.267 218.791L138.644 225.275L136.861 224.553L137.582 222.77L137.698 223.42C137.299 223.782 136.84 223.993 136.319 224.054C135.811 224.11 135.307 224.037 134.809 223.836ZM140.386 225.979L143.009 219.496L144.804 220.222L144.063 222.054L144.025 221.421C144.403 221.041 144.852 220.821 145.372 220.76C145.895 220.692 146.462 220.781 147.073 221.028L146.371 222.763C146.294 222.723 146.223 222.689 146.159 222.663C146.098 222.629 146.031 222.598 145.959 222.568C145.445 222.36 144.967 222.34 144.525 222.507C144.095 222.67 143.755 223.06 143.504 223.679L142.266 226.74L140.386 225.979ZM148.576 229.405C147.877 229.122 147.311 228.73 146.879 228.227C146.45 227.717 146.181 227.146 146.072 226.513C145.971 225.883 146.051 225.247 146.311 224.604C146.574 223.953 146.96 223.441 147.466 223.066C147.984 222.687 148.573 222.467 149.234 222.407C149.897 222.338 150.578 222.446 151.277 222.729C151.96 223.005 152.496 223.39 152.885 223.884C153.277 224.37 153.487 224.927 153.513 225.554L151.738 225.748C151.693 225.374 151.571 225.063 151.373 224.815C151.182 224.569 150.938 224.386 150.641 224.266C150.32 224.136 150.001 224.091 149.685 224.132C149.37 224.173 149.082 224.295 148.822 224.498C148.57 224.705 148.368 224.997 148.215 225.374C148.063 225.752 148.005 226.103 148.042 226.426C148.088 226.753 148.21 227.041 148.408 227.29C148.607 227.538 148.867 227.727 149.188 227.857C149.485 227.978 149.786 228.02 150.09 227.984C150.406 227.943 150.712 227.801 151.007 227.556L152.144 228.941C151.691 229.366 151.154 229.62 150.53 229.705C149.91 229.781 149.259 229.681 148.576 229.405ZM159.169 225.921C159.683 226.129 160.099 226.419 160.416 226.79C160.745 227.157 160.939 227.6 161 228.12C161.064 228.632 160.963 229.218 160.696 229.877L159.195 233.588L157.315 232.828L158.699 229.405C158.911 228.883 158.95 228.45 158.818 228.107C158.694 227.767 158.423 227.512 158.005 227.343C157.708 227.223 157.413 227.179 157.12 227.21C156.838 227.236 156.577 227.35 156.336 227.552C156.103 227.757 155.906 228.06 155.743 228.462L154.447 231.668L152.567 230.907L156.184 221.965L158.064 222.726L156.343 226.98L156.141 226.267C156.549 225.927 157.017 225.729 157.546 225.671C158.074 225.614 158.615 225.697 159.169 225.921ZM164.876 235.887L165.388 234.621L165.379 234.295L166.296 232.03C166.458 231.628 166.461 231.264 166.303 230.939C166.153 230.616 165.824 230.352 165.318 230.148C164.973 230.008 164.609 229.926 164.226 229.902C163.854 229.873 163.514 229.904 163.207 229.995L163.063 228.408C163.517 228.302 164.021 228.281 164.575 228.346C165.128 228.411 165.662 228.548 166.176 228.756C167.164 229.156 167.837 229.699 168.195 230.386C168.553 231.073 168.532 231.91 168.132 232.899L166.635 236.598L164.876 235.887ZM162.86 235.184C162.354 234.979 161.955 234.719 161.661 234.404C161.371 234.081 161.19 233.732 161.117 233.356C161.045 232.981 161.083 232.609 161.233 232.239C161.389 231.854 161.618 231.554 161.919 231.339C162.229 231.128 162.622 231.025 163.096 231.03C163.574 231.027 164.143 231.159 164.802 231.425L166.525 232.122L166.081 233.219L164.563 232.605C164.121 232.426 163.786 232.375 163.559 232.451C163.34 232.531 163.186 232.679 163.099 232.896C163.001 233.137 163.016 233.367 163.142 233.586C163.279 233.801 163.513 233.975 163.842 234.108C164.156 234.235 164.466 234.276 164.774 234.233C165.084 234.181 165.355 234.033 165.584 233.789L165.522 234.774C165.217 235.136 164.839 235.353 164.39 235.424C163.941 235.494 163.431 235.414 162.86 235.184ZM170.479 238.266C169.925 238.041 169.416 237.761 168.954 237.424C168.503 237.083 168.17 236.752 167.954 236.431L169.127 235.334C169.349 235.639 169.637 235.934 169.99 236.217C170.354 236.495 170.733 236.714 171.127 236.873C171.56 237.048 171.887 237.12 172.106 237.087C172.333 237.057 172.484 236.95 172.559 236.765C172.62 236.612 172.594 236.471 172.478 236.34C172.374 236.204 172.214 236.069 171.997 235.935C171.78 235.8 171.539 235.656 171.274 235.502C171.018 235.351 170.761 235.187 170.506 235.009C170.254 234.823 170.039 234.615 169.862 234.384C169.684 234.153 169.57 233.892 169.52 233.6C169.477 233.312 169.531 232.983 169.68 232.614C169.846 232.204 170.109 231.889 170.469 231.67C170.836 231.454 171.281 231.349 171.802 231.354C172.327 231.352 172.903 231.477 173.529 231.731C173.971 231.909 174.402 232.14 174.821 232.421C175.24 232.703 175.564 232.998 175.795 233.306L174.627 234.39C174.388 234.079 174.122 233.826 173.826 233.632C173.542 233.433 173.251 233.273 172.954 233.153C172.536 232.984 172.208 232.916 171.97 232.951C171.732 232.985 171.577 233.091 171.505 233.268C171.44 233.428 171.46 233.576 171.564 233.712C171.676 233.851 171.839 233.992 172.052 234.134C172.266 234.276 172.501 234.423 172.758 234.574C173.026 234.72 173.286 234.886 173.538 235.072C173.79 235.258 174.001 235.465 174.171 235.692C174.352 235.915 174.467 236.172 174.518 236.464C174.571 236.747 174.523 237.074 174.374 237.443C174.211 237.845 173.946 238.154 173.578 238.369C173.214 238.577 172.767 238.677 172.237 238.668C171.716 238.663 171.13 238.529 170.479 238.266ZM177.918 241.275C177.179 240.976 176.586 240.568 176.141 240.051C175.704 239.538 175.433 238.97 175.329 238.349C175.229 237.719 175.308 237.083 175.568 236.44C175.832 235.789 176.213 235.275 176.711 234.897C177.221 234.514 177.795 234.288 178.43 234.218C179.07 234.14 179.719 234.234 180.378 234.501C181.012 234.758 181.527 235.125 181.923 235.603C182.33 236.076 182.58 236.626 182.672 237.252C182.768 237.871 182.674 238.529 182.392 239.228C182.362 239.301 182.324 239.383 182.277 239.476C182.233 239.562 182.191 239.643 182.151 239.72L176.884 237.589L177.328 236.493L181.606 238.223L180.751 238.256C180.888 237.919 180.938 237.598 180.903 237.294C180.867 236.989 180.756 236.72 180.57 236.486C180.388 236.244 180.136 236.058 179.814 235.928C179.493 235.798 179.178 235.755 178.871 235.799C178.575 235.838 178.306 235.958 178.066 236.16C177.828 236.354 177.64 236.623 177.5 236.969L177.383 237.258C177.24 237.612 177.19 237.956 177.232 238.291C177.285 238.621 177.423 238.915 177.646 239.174C177.88 239.427 178.19 239.632 178.575 239.788C178.921 239.928 179.243 239.997 179.542 239.997C179.85 240 180.154 239.941 180.456 239.819L181.017 241.309C180.583 241.526 180.104 241.636 179.58 241.639C179.058 241.633 178.504 241.512 177.918 241.275Z" fill="white"/>
</g>
<defs>
<filter id="filter0_d_87_535" x="0" y="0" width="266" height="267" filterUnits="userSpaceOnUse" color-interpolation-filters="sRGB">
<feFlood flood-opacity="0" result="BackgroundImageFix"/>
<feColorMatrix in="SourceAlpha" type="matrix" values="0 0 0 0 0 0 0 0 0 0 0 0 0 0 0 0 0 0 127 0" result="hardAlpha"/>
<feOffset dy="4"/>
<feGaussianBlur stdDeviation="2"/>
<feComposite in2="hardAlpha" operator="out"/>
<feColorMatrix type="matrix" values="0 0 0 0 0 0 0 0 0 0 0 0 0 0 0 0 0 0 0.25 0"/>
<feBlend mode="normal" in2="BackgroundImageFix" result="effect1_dropShadow_87_535"/>
<feBlend mode="normal" in="SourceGraphic" in2="effect1_dropShadow_87_535" result="shape"/>
</filter>
</defs>
</svg>
